Coordinates
version=1
nRows=14
nColumns=24
inDegrees=yes

Units are S.I. units (second, meters, Newtons, ...)
Angles are in degrees.

endheader
time	pelvis_tilt	pelvis_list	pelvis_rotation	pelvis_tx	pelvis_ty	pelvis_tz	hip_flexion_r	hip_adduction_r	hip_rotation_r	knee_angle_r	ankle_angle_r	subtalar_angle_r	mtp_angle_r	hip_flexion_l	hip_adduction_l	hip_rotation_l	knee_angle_l	ankle_angle_l	subtalar_angle_l	mtp_angle_l	lumbar_extension	lumbar_bending	lumbar_rotation
      1.43716667	     -5.64124542	      1.54906620	     -4.48660329	      0.43168538	      1.07019969	      0.25673191	     22.95023680	     -3.56200156	     -2.57023378	    -63.64556908	      5.67461881	     -3.71488576	      2.85237010	     14.14093833	      2.64783649	     -2.48764292	    -15.32337068	     10.86541249	      5.53382288	      0.14988227	    -10.60438536	     -5.24696111	     -0.81195789
      1.44133333	     -5.60438775	      1.48659600	     -4.37991734	      0.43656448	      1.07084184	      0.25625679	     23.27295434	     -3.49757905	     -2.73922043	    -62.98743144	      5.97062851	     -3.46993793	      2.93904671	     13.64548994	      2.65351717	     -2.37956022	    -14.97148967	     10.95342122	      5.57453781	      0.15834453	    -10.60477701	     -5.13768226	     -1.01729169
      1.44550000	     -5.62496721	      1.41439964	     -4.28178573	      0.44144380	      1.07134124	      0.25581908	     23.65167032	     -3.40847187	     -2.89715434	    -62.30509655	      6.23368413	     -3.37710430	      2.97257645	     13.21967072	      2.63466423	     -2.30675001	    -14.63505970	     11.00074291	      5.67119685	      0.16193376	    -10.54117815	     -5.00281093	     -1.07000727
      1.44966667	     -5.59230583	      1.35691230	     -4.17167984	      0.44629384	      1.07187353	      0.25534787	     23.96544259	     -3.35669156	     -3.07531469	    -61.60148687	      6.51592462	     -3.18040154	      3.05148325	     12.73899306	      2.64344155	     -2.19066790	    -14.29960985	     11.08763073	      5.69164521	      0.16970483	    -10.53910778	     -4.89986764	     -1.26712330
      1.45383333	     -5.61378331	      1.28886009	     -4.07757501	      0.45114292	      1.07228168	      0.25493041	     24.33145740	     -3.27480377	     -3.23182576	    -60.87335363	      6.76163649	     -3.13693529	      3.08093083	     12.32289144	      2.62556694	     -2.11953449	    -13.97692058	     11.14297749	      5.77641978	      0.17324472	    -10.47724621	     -4.77325095	     -1.31747975
      1.45800000	     -5.60127384	      1.21865261	     -3.96777117	      0.45597787	      1.07271694	      0.25449208	     24.64485664	     -3.20538686	     -3.41133204	    -60.11131407	      6.99327840	     -3.05089073	      3.15611820	     11.87097068	      2.61443633	     -1.99357873	    -13.65515245	     11.23018349	      5.78166919	      0.18159851	    -10.45270541	     -4.65286076	     -1.51916072
      1.46216667	     -5.60876760	      1.14942489	     -3.87260510	      0.46079395	      1.07306040	      0.25409321	     24.97820933	     -3.12732262	     -3.57269435	    -59.33526561	      7.22201724	     -3.04474164	      3.18955077	     11.45221553	      2.59330786	     -1.92025570	    -13.35521040	     11.30141663	      5.84393742	      0.18655837	    -10.40300090	     -4.53586155	     -1.57741075
      1.46633333	     -5.63422816	      1.09290182	     -3.78302500	      0.46560462	      1.07332111	      0.25372283	     25.32811642	     -3.05934268	     -3.72415630	    -58.54623069	      7.43576388	     -3.06097465	      3.21553633	     11.05424418	      2.58213791	     -1.84165974	    -13.05687153	     11.38655689	      5.89778616	      0.19148853	    -10.33885620	     -4.43206567	     -1.65621140
      1.47050000	     -5.65035434	      1.03271449	     -3.69570562	      0.47038817	      1.07356602	      0.25336372	     25.65892274	     -2.98764083	     -3.87470351	    -57.73320942	      7.62990015	     -3.10946706	      3.23819804	     10.65073434	      2.56714246	     -1.75587848	    -12.76465356	     11.47538634	      5.93616673	      0.19643820	    -10.28910459	     -4.32180873	     -1.75047291
      1.47466667	     -5.68569997	      0.99527437	     -3.62550864	      0.47515816	      1.07370880	      0.25304948	     26.01727404	     -2.93193727	     -3.99957600	    -56.92339959	      7.81928664	     -3.18565492	      3.25087249	     10.26674269	      2.57006300	     -1.68798068	    -12.46509309	     11.57308552	      5.99175369	      0.20083855	    -10.22170417	     -4.23649446	     -1.81598683
      1.47883333	     -5.69548960	      0.94296634	     -3.53399202	      0.47989535	      1.07387325	      0.25271935	     26.32643290	     -2.86898885	     -4.14524940	    -56.07072496	      7.95026287	     -3.31309566	      3.27554531	      9.86739660	      2.56357189	     -1.56515443	    -12.19067135	     11.67181270	      5.96196023	      0.20905248	    -10.18143982	     -4.14045809	     -1.98991521
      1.48300000	     -5.73237902	      0.89980639	     -3.45957600	      0.48463237	      1.07394902	      0.25243673	     26.66339463	     -2.80532623	     -4.26988813	    -55.21152434	      8.13430405	     -3.43325655	      3.28433394	      9.50547309	      2.55567514	     -1.50207212	    -11.93137259	     11.75576677	      5.99855195	      0.21399310	    -10.11007516	     -4.06050177	     -2.03380808
      1.48716667	     -5.76449772	      0.86795628	     -3.39997231	      0.48935010	      1.07397525	      0.25219172	     26.99719984	     -2.74738854	     -4.37546105	    -54.34917420	      8.28799962	     -3.57819515	      3.28737348	      9.13353841	      2.55766496	     -1.43778091	    -11.65894187	     11.86787540	      6.04437533	      0.21892720	    -10.05499634	     -3.98597023	     -2.08096951
      1.49133333	     -5.80140662	      0.81086607	     -3.31875351	      0.49404542	      1.07398201	      0.25193663	     27.30996791	     -2.66531906	     -4.49750907	    -53.43731379	      8.38794116	     -3.78725287	      3.28624880	      8.78970362	      2.53240800	     -1.35578030	    -11.43726770	     11.97695230	      6.05059939	      0.22511351	     -9.98878121	     -3.89721867	     -2.15902123
